<?xml version="1.0" encoding="utf-8"?>
<svg viewBox="-45.728 38.963 259.352 130.7" width="259.352" height="130.7" xmlns="http://www.w3.org/2000/svg">
  <defs>
    <linearGradient id="paint0_linear_1_253" x1="0.0714417" y1="47.8203" x2="259.423" y2="47.8203" gradientUnits="userSpaceOnUse" gradientTransform="matrix(1, 0, 0, 1, -45.799463, 74.511436)">
      <stop stop-color="#DD1B60"/>
      <stop offset="0.243" stop-color="#DE1D5B"/>
      <stop offset="0.495" stop-color="#E2254F"/>
      <stop offset="0.751" stop-color="#EA313A"/>
      <stop offset="1" stop-color="#F4431F"/>
    </linearGradient>
    <linearGradient id="paint0_linear_1_252" x1="0.27063" y1="47.2334" x2="169.412" y2="47.2334" gradientUnits="userSpaceOnUse" gradientTransform="matrix(1, 0, 0, 1, -0.270187, 39.042184)">
      <stop stop-color="#DD1B60"/>
      <stop offset="0.243" stop-color="#DE1D5B"/>
      <stop offset="0.495" stop-color="#E2254F"/>
      <stop offset="0.751" stop-color="#EA313A"/>
      <stop offset="1" stop-color="#F4431F"/>
    </linearGradient>
  </defs>
  <path d="M 204.321 150.522 L 121.599 150.522 C 127.724 142.401 131.031 132.504 131.021 122.332 C 131.021 109.871 126.071 97.921 117.26 89.11 C 108.448 80.298 96.498 75.348 84.037 75.348 C 71.577 75.348 59.626 80.298 50.814 89.11 C 42.003 97.921 37.053 109.871 37.053 122.332 C 37.053 124.825 38.043 127.215 39.805 128.977 C 41.568 130.739 43.958 131.729 46.45 131.729 C 48.943 131.729 51.333 130.739 53.095 128.977 C 54.858 127.215 55.847 124.825 55.847 122.332 C 55.847 116.757 57.5 111.306 60.598 106.67 C 63.696 102.034 68.098 98.421 73.249 96.287 C 78.401 94.153 84.069 93.595 89.537 94.683 C 95.005 95.77 100.029 98.455 103.971 102.397 C 107.913 106.34 110.598 111.363 111.687 116.831 C 112.774 122.3 112.216 127.968 110.082 133.119 C 107.948 138.27 104.336 142.673 99.699 145.771 C 95.063 148.869 89.613 150.522 84.038 150.522 L -36.237 150.522 C -37.479 150.509 -38.711 150.743 -39.862 151.21 C -41.013 151.676 -42.06 152.367 -42.942 153.24 C -43.825 154.114 -44.525 155.154 -45.003 156.3 C -45.482 157.447 -45.728 158.676 -45.728 159.919 C -45.728 161.16 -45.482 162.39 -45.003 163.536 C -44.525 164.682 -43.825 165.722 -42.942 166.596 C -42.06 167.469 -41.013 168.16 -39.862 168.626 C -38.711 169.093 -37.479 169.327 -36.237 169.315 L 204.321 169.315 C 206.797 169.29 209.163 168.289 210.905 166.529 C 212.647 164.77 213.624 162.394 213.624 159.919 C 213.624 157.442 212.647 155.066 210.905 153.307 C 209.163 151.547 206.797 150.546 204.321 150.522 Z" fill="url(#paint0_linear_1_253)"/>
  <path d="M 9.397 133.258 C 10.631 133.258 11.853 133.016 12.993 132.544 C 14.133 132.071 15.169 131.379 16.041 130.507 C 16.914 129.634 17.606 128.598 18.078 127.458 C 18.551 126.318 18.794 125.096 18.794 123.862 C 18.794 106.417 25.724 89.686 38.059 77.351 C 50.395 65.015 67.126 58.085 84.571 58.085 C 102.016 58.085 118.748 65.015 131.083 77.351 C 143.419 89.686 150.349 106.417 150.349 123.862 C 150.373 126.338 151.374 128.704 153.134 130.446 C 154.893 132.188 157.269 133.166 159.746 133.166 C 162.222 133.166 164.598 132.188 166.357 130.446 C 168.117 128.704 169.118 126.338 169.142 123.862 C 169.142 112.756 166.954 101.759 162.705 91.499 C 158.454 81.238 152.225 71.915 144.372 64.062 C 136.518 56.209 127.195 49.979 116.935 45.729 C 106.674 41.479 95.677 39.292 84.571 39.292 C 73.465 39.292 62.468 41.479 52.207 45.729 C 41.947 49.979 32.624 56.209 24.771 64.062 C 16.918 71.915 10.688 81.238 6.438 91.499 C 2.188 101.759 0 112.756 0 123.862 C 0 126.354 0.99 128.744 2.752 130.506 C 4.515 132.268 6.905 133.258 9.397 133.258 Z" fill="url(#paint0_linear_1_252)"/>
</svg>